<svg xmlns="http://www.w3.org/2000/svg" viewBox="0 0 83.7 85.58"><g id="Ebene_1" data-name="Ebene 1"><rect x="54.1" y="12.72" width="3.19" height="9.71" rx="0.84" transform="matrix(0.67, -0.74, 0.74, 0.67, 5.14, 46.81)" fill="#f39200"/><path d="M29.82,46.94a.84.84,0,0,0,1.18,0l3.74-4.09,2,1.87a3.14,3.14,0,0,0,4.44-.2L55.51,28.84a3.13,3.13,0,0,0-.2-4.43l-6.39-5.84a3.13,3.13,0,0,0-4.43.2L30.2,34.4a3.13,3.13,0,0,0,.2,4.43l2,1.82-3.73,4.09a.83.83,0,0,0,.05,1.18Z" fill="#f39200"/><path d="M62.58,68.93H51.07V61.2a16.5,16.5,0,0,0,7.55-13,16.31,16.31,0,0,0-4.36-12,.61.61,0,0,0-.87,0l-1.31,1.31a.7.7,0,0,0,0,1,13.3,13.3,0,0,1-7.39,22,13.79,13.79,0,0,1-5.32-.08.88.88,0,0,0-1,.61l-.41,1.42a.81.81,0,0,0,.57,1,16.67,16.67,0,0,0,7.24.05,14.25,14.25,0,0,0,2.17-.63v6.14H29.73a1,1,0,0,0,0-.17V55.25H35a.84.84,0,0,0,.83-.84V52.89a.83.83,0,0,0-.83-.83H21.12a.83.83,0,0,0-.83.83v1.52a.84.84,0,0,0,.83.84h5.45V68.76a1,1,0,0,0,0,.17H22.54a.83.83,0,0,0-.83.83v1.52a.84.84,0,0,0,.83.84h40a.85.85,0,0,0,.84-.84V69.76A.84.84,0,0,0,62.58,68.93Z" fill="#f39200"/></g></svg>