<svg xmlns="http://www.w3.org/2000/svg" viewBox="0 0 83.7 85.58"><g id="Ebene_1" data-name="Ebene 1"><path d="M71.25,54.22l-3.14-5.43a2,2,0,0,0-1.75-1H60.09a2,2,0,0,0-1.76,1l-1.07,1.86-7-4.58A2.07,2.07,0,0,0,50.55,45V38.69a2,2,0,0,0-1-1.75l-1.76-1,5.29-6.35a2.07,2.07,0,0,0,1,.25h6.27a2,2,0,0,0,1.75-1l3.14-5.43a2,2,0,0,0,0-2l-3.14-5.43a2,2,0,0,0-1.75-1H54.05a2.06,2.06,0,0,0-1.76,1l-3.13,5.43a2,2,0,0,0,0,2l3.13,5.43c0,.06.08.1.12.15L47,35.47,44.11,33.8a2,2,0,0,0-2,0l-2.77,1.6L26.81,21.34l1.7-2.93a2,2,0,0,0,0-2L25.37,11a2,2,0,0,0-1.75-1H17.35a2,2,0,0,0-1.76,1l-3.13,5.43a2,2,0,0,0,0,2l3.13,5.44a2,2,0,0,0,1.76,1h2.47l3.27,34.74a1.92,1.92,0,0,0-.81.48l-4.44,4.42a2.05,2.05,0,0,0-.53,2l1.61,6.06a2,2,0,0,0,1.43,1.43l6.06,1.64a2.32,2.32,0,0,0,.52.07,2,2,0,0,0,1.43-.59l4.45-4.43a2,2,0,0,0,.52-1.95l-.61-2.3,24.16-7.21,1.45,2.51a2,2,0,0,0,1.76,1h6.27a2,2,0,0,0,1.75-1l3.14-5.43A2,2,0,0,0,71.25,54.22Zm-20-31.85,2.95-5.12h5.9l3,5.12-3,5.11H54.3l-.13-.11ZM43.09,35.92l5.11,2.95v5.91l-5.11,2.95L38,44.78v-5.9ZM17.53,22.5l-3-5.11,3-5.11h5.9l2.95,5.11L23.43,22.5Zm3.2,2.35h2.89a2,2,0,0,0,1.75-1l1-1.68,12.17,13.7-1.86,1.08a2,2,0,0,0-1,1.75V45a2,2,0,0,0,1,1.76l2.63,1.51-9,12.94-6-1.62a2.13,2.13,0,0,0-.25,0Zm6.11,48.42-5.7-1.54L19.62,66l4.19-4.17L29.5,63.4,31,69.1Zm5.65-7.77-.77-2.89a2,2,0,0,0-.68-1l9-12.9,2,1.16a2,2,0,0,0,1,.27,2.08,2.08,0,0,0,1-.27l5.43-3.14h0l7.27,4.72L55.2,54.22a2,2,0,0,0,0,2l1.22,2.12Zm33.68-5.15h-5.9l-3-5.11,3-5.12h5.9l3,5.12Z" fill="#f39200"/></g></svg>